<svg xmlns="http://www.w3.org/2000/svg" viewBox="0 0 24 24" width="24" height="24">
    <path d="M23.954 4.569c-.885.392-1.83.656-2.825.775 1.014-.608 1.794-1.569 2.163-2.724-.951.564-2.005.974-3.127 1.195-.897-.957-2.178-1.555-3.594-1.555-2.717 0-4.92 2.203-4.92 4.917 0 .39.045.765.127 1.124-4.087-.205-7.713-2.165-10.141-5.144-.423.722-.666 1.561-.666 2.457 0 1.697.865 3.194 2.181 4.073-.803-.026-1.56-.247-2.22-.616v.062c0 2.367 1.684 4.342 3.918 4.788-.41.111-.84.171-1.285.171-.314 0-.615-.03-.916-.086.631 1.953 2.445 3.377 4.6 3.417-1.68 1.319-3.809 2.105-6.102 2.105-.39 0-.779-.023-1.17-.067 2.179 1.397 4.768 2.212 7.557 2.212 9.054 0 14-7.496 14-13.986 0-.21 0-.423-.015-.634.961-.695 1.8-1.562 2.46-2.549z"/>
</svg>